<?xml version="1.0" encoding="utf-8" standalone="no"?>
<!DOCTYPE svg PUBLIC "-//W3C//DTD SVG 1.1//EN"
  "http://www.w3.org/Graphics/SVG/1.1/DTD/svg11.dtd">
<svg height="288pt" version="1.1" viewBox="0 0 432 288" width="432pt" xmlns="http://www.w3.org/2000/svg" xmlns:xlink="http://www.w3.org/1999/xlink">
 <metadata>
  <rdf:RDF xmlns:cc="http://creativecommons.org/ns#" xmlns:dc="http://purl.org/dc/elements/1.1/" xmlns:rdf="http://www.w3.org/1999/02/22-rdf-syntax-ns#">
   <cc:Work>
    <dc:type rdf:resource="http://purl.org/dc/dcmitype/StillImage"/>
    <dc:date>2021-05-31T12:39:50.780668</dc:date>
    <dc:format>image/svg+xml</dc:format>
    <dc:creator>
     <cc:Agent>
      <dc:title>Matplotlib v3.4.2, https://matplotlib.org/</dc:title>
     </cc:Agent>
    </dc:creator>
   </cc:Work>
  </rdf:RDF>
 </metadata>
 <defs>
  <style type="text/css">*{stroke-linecap:butt;stroke-linejoin:round;}</style>
 </defs>
 <g id="figure_1">
  <g id="patch_1">
   <path d="M 0 288 
L 432 288 
L 432 0 
L 0 0 
z
" style="fill:none;"/>
  </g>
  <g id="axes_1">
   <g id="patch_2">
    <path d="M 54 252 
L 388.8 252 
L 388.8 34.56 
L 54 34.56 
z
" style="fill:#ffffff;"/>
   </g>
   <g id="matplotlib.axis_1">
    <g id="xtick_1">
     <g id="line2d_1">
      <defs>
       <path d="M 0 0 
L 0 3.5 
" id="m7ff4306c6e" style="stroke:#000000;stroke-width:0.8;"/>
      </defs>
      <g>
       <use style="stroke:#000000;stroke-width:0.8;" x="103.036364" xlink:href="#m7ff4306c6e" y="252"/>
      </g>
     </g>
     <g id="text_1">
      <!-- 2 -->
      <g transform="translate(100.236364 266.170313)scale(0.1 -0.1)">
       <defs>
        <path d="M 435 -205 
L 435 -77 
Q 435 250 668 608 
Q 902 966 1232 1283 
Q 1562 1600 1894 1920 
Q 2227 2240 2460 2605 
Q 2694 2970 2694 3309 
Q 2694 3757 2464 4006 
Q 2234 4256 1818 4256 
Q 1472 4256 1177 4016 
Q 883 3776 704 3418 
L 358 3584 
Q 576 4026 944 4307 
Q 1312 4589 1824 4589 
Q 2432 4589 2768 4259 
Q 3104 3930 3104 3347 
Q 3104 3034 2953 2714 
Q 2803 2394 2579 2134 
Q 2355 1875 2080 1600 
Q 1805 1325 1561 1101 
Q 1318 877 1132 621 
Q 947 365 896 141 
L 3226 141 
L 3226 -205 
L 435 -205 
z
" id="KoreanGD11-R-32" transform="scale(0.015625)"/>
       </defs>
       <use xlink:href="#KoreanGD11-R-32"/>
      </g>
     </g>
    </g>
    <g id="xtick_2">
     <g id="line2d_2">
      <g>
       <use style="stroke:#000000;stroke-width:0.8;" x="170.672727" xlink:href="#m7ff4306c6e" y="252"/>
      </g>
     </g>
     <g id="text_2">
      <!-- 4 -->
      <g transform="translate(167.872727 266.170313)scale(0.1 -0.1)">
       <defs>
        <path d="M 2355 3270 
L 2739 3270 
L 2739 1165 
L 3443 1165 
L 3443 819 
L 2739 819 
L 2739 -243 
L 2355 -243 
L 2355 819 
L 205 819 
L 205 1222 
L 1914 4646 
L 2355 4646 
L 595 1165 
L 2355 1165 
L 2355 3270 
z
" id="KoreanGD11-R-34" transform="scale(0.015625)"/>
       </defs>
       <use xlink:href="#KoreanGD11-R-34"/>
      </g>
     </g>
    </g>
    <g id="xtick_3">
     <g id="line2d_3">
      <g>
       <use style="stroke:#000000;stroke-width:0.8;" x="238.309091" xlink:href="#m7ff4306c6e" y="252"/>
      </g>
     </g>
     <g id="text_3">
      <!-- 6 -->
      <g transform="translate(235.509091 266.170313)scale(0.1 -0.1)">
       <defs>
        <path d="M 3238 1171 
Q 3238 512 2838 93 
Q 2438 -326 1837 -326 
Q 1088 -326 710 208 
Q 333 742 333 1587 
Q 333 2560 1011 3488 
Q 1690 4416 2566 4762 
L 2662 4550 
Q 2099 4275 1497 3529 
Q 896 2784 787 2125 
Q 1235 2592 1984 2592 
Q 2509 2592 2873 2179 
Q 3238 1766 3238 1171 
z
M 2829 1146 
Q 2829 1645 2573 1952 
Q 2317 2259 1850 2259 
Q 1421 2259 1088 2035 
Q 755 1811 755 1414 
Q 755 813 1011 409 
Q 1267 6 1805 6 
Q 2291 6 2560 313 
Q 2829 621 2829 1146 
z
" id="KoreanGD11-R-36" transform="scale(0.015625)"/>
       </defs>
       <use xlink:href="#KoreanGD11-R-36"/>
      </g>
     </g>
    </g>
    <g id="xtick_4">
     <g id="line2d_4">
      <g>
       <use style="stroke:#000000;stroke-width:0.8;" x="305.945455" xlink:href="#m7ff4306c6e" y="252"/>
      </g>
     </g>
     <g id="text_4">
      <!-- 8 -->
      <g transform="translate(303.145455 266.170313)scale(0.1 -0.1)">
       <defs>
        <path d="M 3328 1037 
Q 3328 358 2870 9 
Q 2413 -339 1741 -339 
Q 1126 -339 688 -16 
Q 250 307 250 922 
Q 250 1363 563 1715 
Q 877 2067 1357 2278 
Q 934 2502 668 2790 
Q 403 3078 403 3494 
Q 403 4038 819 4316 
Q 1235 4595 1824 4595 
Q 2349 4595 2723 4329 
Q 3098 4064 3098 3552 
Q 3098 2810 2067 2336 
Q 2598 2150 2963 1824 
Q 3328 1498 3328 1037 
z
M 2662 3565 
Q 2662 3968 2422 4128 
Q 2182 4288 1754 4288 
Q 1363 4288 1091 4099 
Q 819 3910 819 3546 
Q 819 2957 1798 2515 
Q 2214 2720 2438 2960 
Q 2662 3200 2662 3565 
z
M 2899 922 
Q 2899 1088 2854 1229 
Q 2810 1370 2694 1488 
Q 2579 1606 2496 1680 
Q 2413 1754 2208 1846 
Q 2003 1939 1920 1974 
Q 1837 2010 1594 2106 
Q 1165 1875 925 1616 
Q 685 1357 685 998 
Q 685 518 992 259 
Q 1299 0 1798 0 
Q 2240 0 2569 246 
Q 2899 493 2899 922 
z
" id="KoreanGD11-R-38" transform="scale(0.015625)"/>
       </defs>
       <use xlink:href="#KoreanGD11-R-38"/>
      </g>
     </g>
    </g>
    <g id="xtick_5">
     <g id="line2d_5">
      <g>
       <use style="stroke:#000000;stroke-width:0.8;" x="373.581818" xlink:href="#m7ff4306c6e" y="252"/>
      </g>
     </g>
     <g id="text_5">
      <!-- 10 -->
      <g transform="translate(367.981818 266.170313)scale(0.1 -0.1)">
       <defs>
        <path d="M 2118 -230 
L 1734 -230 
L 1734 3936 
Q 1434 3648 845 3405 
L 685 3661 
Q 1389 3981 1843 4531 
L 2118 4531 
L 2118 -230 
z
" id="KoreanGD11-R-31" transform="scale(0.015625)"/>
        <path d="M 796 3193 
Q 678 2720 678 2131 
Q 678 1542 796 1068 
Q 915 595 1171 300 
Q 1427 6 1779 6 
Q 2317 6 2608 611 
Q 2899 1216 2899 2131 
Q 2899 3046 2608 3651 
Q 2317 4256 1779 4256 
Q 1427 4256 1171 3961 
Q 915 3667 796 3193 
z
M 2896 3942 
Q 3296 3290 3296 2131 
Q 3296 973 2896 320 
Q 2496 -333 1779 -333 
Q 1062 -333 672 316 
Q 282 966 282 2131 
Q 282 3296 672 3945 
Q 1062 4595 1779 4595 
Q 2496 4595 2896 3942 
z
" id="KoreanGD11-R-30" transform="scale(0.015625)"/>
       </defs>
       <use xlink:href="#KoreanGD11-R-31"/>
       <use x="55.999985" xlink:href="#KoreanGD11-R-30"/>
      </g>
     </g>
    </g>
   </g>
   <g id="matplotlib.axis_2">
    <g id="ytick_1">
     <g id="line2d_6">
      <defs>
       <path d="M 0 0 
L -3.5 0 
" id="m7b8476b6a2" style="stroke:#000000;stroke-width:0.8;"/>
      </defs>
      <g>
       <use style="stroke:#000000;stroke-width:0.8;" x="54" xlink:href="#m7b8476b6a2" y="236.625455"/>
      </g>
     </g>
     <g id="text_6">
      <!-- 2.5 -->
      <g transform="translate(33.3 240.210611)scale(0.1 -0.1)">
       <defs>
        <path d="M 547 105 
Q 653 211 800 211 
Q 947 211 1049 105 
Q 1152 0 1152 -141 
Q 1152 -294 1049 -400 
Q 947 -506 800 -506 
Q 646 -506 544 -400 
Q 442 -294 442 -141 
Q 442 0 547 105 
z
" id="KoreanGD11-R-2e" transform="scale(0.015625)"/>
        <path d="M 525 -365 
L 525 -51 
Q 602 -64 768 -64 
Q 1216 -58 1622 76 
Q 2029 211 2333 544 
Q 2637 877 2637 1350 
Q 2637 1907 2249 2169 
Q 1862 2432 1261 2426 
Q 870 2413 582 2285 
L 787 4493 
L 3027 4493 
L 2976 4147 
L 1158 4147 
L 1011 2688 
Q 1267 2752 1574 2752 
Q 2170 2752 2608 2387 
Q 3046 2022 3046 1414 
Q 3046 858 2726 435 
Q 2406 13 1932 -188 
Q 1459 -390 922 -397 
Q 736 -397 525 -365 
z
" id="KoreanGD11-R-35" transform="scale(0.015625)"/>
       </defs>
       <use xlink:href="#KoreanGD11-R-32"/>
       <use x="55.999985" xlink:href="#KoreanGD11-R-2e"/>
       <use x="80.999969" xlink:href="#KoreanGD11-R-35"/>
      </g>
     </g>
    </g>
    <g id="ytick_2">
     <g id="line2d_7">
      <g>
       <use style="stroke:#000000;stroke-width:0.8;" x="54" xlink:href="#m7b8476b6a2" y="209.170909"/>
      </g>
     </g>
     <g id="text_7">
      <!-- 5.0 -->
      <g transform="translate(33.3 212.756065)scale(0.1 -0.1)">
       <use xlink:href="#KoreanGD11-R-35"/>
       <use x="55.999985" xlink:href="#KoreanGD11-R-2e"/>
       <use x="80.999969" xlink:href="#KoreanGD11-R-30"/>
      </g>
     </g>
    </g>
    <g id="ytick_3">
     <g id="line2d_8">
      <g>
       <use style="stroke:#000000;stroke-width:0.8;" x="54" xlink:href="#m7b8476b6a2" y="181.716364"/>
      </g>
     </g>
     <g id="text_8">
      <!-- 7.5 -->
      <g transform="translate(33.3 185.30152)scale(0.1 -0.1)">
       <defs>
        <path d="M 358 4147 
L 358 4493 
L 3213 4493 
L 3213 4128 
Q 2656 3571 2214 2412 
Q 1773 1254 1690 -230 
L 1242 -230 
Q 1280 550 1456 1299 
Q 1632 2048 1878 2598 
Q 2125 3149 2361 3536 
Q 2598 3923 2810 4147 
L 358 4147 
z
" id="KoreanGD11-R-37" transform="scale(0.015625)"/>
       </defs>
       <use xlink:href="#KoreanGD11-R-37"/>
       <use x="55.999985" xlink:href="#KoreanGD11-R-2e"/>
       <use x="80.999969" xlink:href="#KoreanGD11-R-35"/>
      </g>
     </g>
    </g>
    <g id="ytick_4">
     <g id="line2d_9">
      <g>
       <use style="stroke:#000000;stroke-width:0.8;" x="54" xlink:href="#m7b8476b6a2" y="154.261818"/>
      </g>
     </g>
     <g id="text_9">
      <!-- 10.0 -->
      <g transform="translate(27.7 157.846974)scale(0.1 -0.1)">
       <use xlink:href="#KoreanGD11-R-31"/>
       <use x="55.999985" xlink:href="#KoreanGD11-R-30"/>
       <use x="111.999969" xlink:href="#KoreanGD11-R-2e"/>
       <use x="136.999954" xlink:href="#KoreanGD11-R-30"/>
      </g>
     </g>
    </g>
    <g id="ytick_5">
     <g id="line2d_10">
      <g>
       <use style="stroke:#000000;stroke-width:0.8;" x="54" xlink:href="#m7b8476b6a2" y="126.807273"/>
      </g>
     </g>
     <g id="text_10">
      <!-- 12.5 -->
      <g transform="translate(27.7 130.392429)scale(0.1 -0.1)">
       <use xlink:href="#KoreanGD11-R-31"/>
       <use x="55.999985" xlink:href="#KoreanGD11-R-32"/>
       <use x="111.999969" xlink:href="#KoreanGD11-R-2e"/>
       <use x="136.999954" xlink:href="#KoreanGD11-R-35"/>
      </g>
     </g>
    </g>
    <g id="ytick_6">
     <g id="line2d_11">
      <g>
       <use style="stroke:#000000;stroke-width:0.8;" x="54" xlink:href="#m7b8476b6a2" y="99.352727"/>
      </g>
     </g>
     <g id="text_11">
      <!-- 15.0 -->
      <g transform="translate(27.7 102.937884)scale(0.1 -0.1)">
       <use xlink:href="#KoreanGD11-R-31"/>
       <use x="55.999985" xlink:href="#KoreanGD11-R-35"/>
       <use x="111.999969" xlink:href="#KoreanGD11-R-2e"/>
       <use x="136.999954" xlink:href="#KoreanGD11-R-30"/>
      </g>
     </g>
    </g>
    <g id="ytick_7">
     <g id="line2d_12">
      <g>
       <use style="stroke:#000000;stroke-width:0.8;" x="54" xlink:href="#m7b8476b6a2" y="71.898182"/>
      </g>
     </g>
     <g id="text_12">
      <!-- 17.5 -->
      <g transform="translate(27.7 75.483338)scale(0.1 -0.1)">
       <use xlink:href="#KoreanGD11-R-31"/>
       <use x="55.999985" xlink:href="#KoreanGD11-R-37"/>
       <use x="111.999969" xlink:href="#KoreanGD11-R-2e"/>
       <use x="136.999954" xlink:href="#KoreanGD11-R-35"/>
      </g>
     </g>
    </g>
    <g id="ytick_8">
     <g id="line2d_13">
      <g>
       <use style="stroke:#000000;stroke-width:0.8;" x="54" xlink:href="#m7b8476b6a2" y="44.443636"/>
      </g>
     </g>
     <g id="text_13">
      <!-- 20.0 -->
      <g transform="translate(27.7 48.028793)scale(0.1 -0.1)">
       <use xlink:href="#KoreanGD11-R-32"/>
       <use x="55.999985" xlink:href="#KoreanGD11-R-30"/>
       <use x="111.999969" xlink:href="#KoreanGD11-R-2e"/>
       <use x="136.999954" xlink:href="#KoreanGD11-R-30"/>
      </g>
     </g>
    </g>
   </g>
   <g id="line2d_14">
    <path clip-path="url(#pd69e6ee3fb)" d="M 69.218182 242.116364 
L 103.036364 220.152727 
L 136.854545 198.189091 
L 170.672727 176.225455 
L 204.490909 154.261818 
L 238.309091 132.298182 
L 272.127273 110.334545 
L 305.945455 88.370909 
L 339.763636 66.407273 
L 373.581818 44.443636 
" style="fill:none;stroke:#1f77b4;stroke-linecap:square;stroke-width:1.5;"/>
   </g>
   <g id="patch_3">
    <path d="M 54 252 
L 54 34.56 
" style="fill:none;stroke:#000000;stroke-linecap:square;stroke-linejoin:miter;stroke-width:0.8;"/>
   </g>
   <g id="patch_4">
    <path d="M 388.8 252 
L 388.8 34.56 
" style="fill:none;stroke:#000000;stroke-linecap:square;stroke-linejoin:miter;stroke-width:0.8;"/>
   </g>
   <g id="patch_5">
    <path d="M 54 252 
L 388.8 252 
" style="fill:none;stroke:#000000;stroke-linecap:square;stroke-linejoin:miter;stroke-width:0.8;"/>
   </g>
   <g id="patch_6">
    <path d="M 54 34.56 
L 388.8 34.56 
" style="fill:none;stroke:#000000;stroke-linecap:square;stroke-linejoin:miter;stroke-width:0.8;"/>
   </g>
  </g>
 </g>
 <defs>
  <clipPath id="pd69e6ee3fb">
   <rect height="217.44" width="334.8" x="54" y="34.56"/>
  </clipPath>
 </defs>
</svg>
